<svg width="100%" height="100%" viewBox="0 0 725 725" version="1.1" xmlns="http://www.w3.org/2000/svg" xmlns:xlink="http://www.w3.org/1999/xlink" xml:space="preserve" xmlns:serif="http://www.serif.com/" style="fill-rule:evenodd;clip-rule:evenodd;stroke-linejoin:round;stroke-miterlimit:2;">
    <g>
        <path d="M509.514,30.706c-361.791,-141.67 -630.405,244.933 -453.015,525.286c-83.231,-307.19 140.656,-651.424 453.015,-525.286Z" style="fill:#0663f8;"/>
        <path d="M540.194,46.18c196.107,128.017 120.32,465.563 -131.076,429.91c63.243,38.223 133.922,73.17 256.992,85.039c98.532,-165.756 78.961,-392.111 -125.916,-514.949Z" style="fill:#0663f8;"/>
        <g>
            <path d="M193.525,683.765c62.52,30.318 133.332,49.568 228.254,36.635c-294.765,-181.3 -293.811,-521.711 -119.176,-623.401c-162.709,142.581 -101.181,465.536 222.873,589.955c39.736,-22.022 73.683,-46.486 99.483,-74.389c-98.287,-0.543 -288.79,-97.937 -329.673,-203.202c-8.773,-20.838 11.885,-30.368 25.915,-13.866c138.239,106.977 306.128,-0.105 289.332,-168.929c-19.413,-121.179 -88.758,-189.607 -223.959,-188.459c-159.944,6.311 -252.468,120.136 -281.787,259.713c-33.905,145.203 12.076,268.791 88.738,385.943Z" style="fill:#af2222;"/>
        </g>
        <g>
            <path d="M193.525,683.765c62.52,30.318 133.332,49.568 228.254,36.635c-294.765,-181.3 -293.811,-521.711 -119.176,-623.401c-162.709,142.581 -101.181,465.536 222.873,589.955c39.736,-22.022 73.683,-46.486 99.483,-74.389c-98.287,-0.543 -288.79,-97.937 -329.673,-203.202c-8.773,-20.838 11.885,-30.368 25.915,-13.866c138.239,106.977 306.128,-0.105 289.332,-168.929c-19.413,-121.179 -88.758,-189.607 -223.959,-188.459c-159.944,6.311 -252.468,120.136 -281.787,259.713c-33.905,145.203 12.076,268.791 88.738,385.943Z" style="fill:#af2222;"/>
        </g>
    </g>
</svg>